<svg xmlns="http://www.w3.org/2000/svg" width="635" height="254" fill="none"><g fill="#FA3D8B" clip-path="url(#a)"><path d="M431.278 173.858c-.479 7.009.429 12.451-1.661 17.641-2.733 6.794-7.606 9.554-15.045 8.379-6.894-1.087-9.921-5.365-10.497-12.052-1.231-14.535-.225-29.102-.742-43.64-.635-17.894-18.181-30.855-34.654-25.882-12.224 3.69-20.973 16.465-19.898 29.034 1.112 13.04 11.247 23.113 25.454 24.943 4.747.608 9.481 1.077 12.509 5.258 3.192 4.415 4.433 9.359 1.903 14.576-2.354 4.855-6.347 7.234-11.716 7.664-22.371 1.802-37.397-9.631-48.402-27.537-3.29-5.344-3.848-6.412-7.754-.176-12.732 20.342-31.127 31.082-55.567 27.881-23.513-3.075-38.364-17.142-45.325-39.559-1.573-5.08-2.383-10.592-2.432-15.907-.244-26.539-.176-53.078-.078-79.617.039-10.837 5.741-17.24 14.519-16.847 6.064.273 10.116 3.279 12.001 9.055 1.552 4.748 1.806 9.662 1.777 14.615-.147 23.925-.352 47.86-.382 71.785-.019 12.755 7.616 23.308 19.373 27.323 14.197 4.854 29.029-2.174 33.559-15.909 5.137-15.575-2.254-31.238-17.039-35.731-4.011-1.223-8.27-1.605-12.312-2.74-7.606-2.135-10.497-7.078-9.481-15.604.762-6.373 5.498-10.925 12.372-11.2 20.056-.783 34.965 8.468 46.321 24.385 1.866 2.614 3.574 5.356 5.254 7.881 2.539-.558 2.831-2.457 3.485-3.788 12.742-25.757 44.799-33.608 68.34-25.532 12.127 4.161 20.496 12.952 27.34 23.26 3.36 5.061 5.136 5.668 8.242-.186 15.377-28.966 64.472-36.631 86.949-9.505 1.876 2.261 4.052 4.278 6.855 7.205.909-6.246-.099-11.161 1.905-15.85 2.761-6.47 7.664-8.31 14.08-8.066 6.336.235 9.706 3.74 11.345 9.584 2.852 10.181 1.026 20.558 1.387 30.836.234 6.569-.391 13.207.332 19.706 1.514 13.539 12.976 22.937 26.861 22.73 14.061-.205 25.446-10.238 26.257-24.208.721-12.403.35-24.874.526-37.317.039-2.809.117-5.639.537-8.408 1.397-9.026 6.24-13.206 14.539-12.796 7.266.363 12.255 5.796 12.439 14.294.246 10.796.06 21.604.06 32.411v61.302c-.01 30.386-25.993 56.043-56.261 55.564-8.037-.127-14.754-6.159-15.164-13.627-.401-7.205 4.276-12.805 12.927-13.646 11.669-1.136 21.432-4.808 26.98-15.946 1.131-2.293 2.108-4.73 2.684-7.207 1.542-6.685.069-7.988-6.435-5.991-21.969 6.744-41.458 6.286-64.033-17.523-1.934 2.467-1.289 5.179-1.104 7.959 2.48 36.427-18.729 62.387-53.948 66.235-6.151.675-11.043-1.497-14.743-6.276-3.32-4.286-3.408-9.064-1.397-13.958 2.002-4.856 5.624-7.078 10.887-7.371 12.734-.706 23.278-5.061 28.365-18.053 1.299-3.327 2.12-6.636 2.1-10.239-.107-17.611-.83-35.261.049-52.833.645-12.864-10.126-24.415-23.074-26.911-13.414-2.584-25.698 5.052-30.649 18.874-4.179 11.649 1.289 25.002 13.007 31.747 4.119 2.368 8.6 3.592 13.299 4.141 10.682 1.253 15.045 5.834 13.863 14.449-1.337 9.789-8.571 14.204-18.697 13.225-17.938-1.732-30.729-11.404-42.202-26.294l.01-.01ZM147.626 127.643c-.898 14.537-5.555 27.645-15.964 38.129-10.711 10.778-24.293 16.192-39.204 16.192-28.267.029-53.644-26.725-52.6-55.261.177-4.865 2.13-7.998 6.904-8.507 5.537-.578 7.84 3.299 8.212 7.988.86 10.573 4.16 19.98 11.707 27.626 10.956 11.081 23.971 14.361 38.677 9.495 14.948-4.953 23.395-15.76 26.216-31.13.371-2.006.508-4.062.83-6.089.781-4.777 2.998-8.468 8.407-7.851 5.224.597 7.119 4.552 6.825 9.398l-.01.01Z"/><path d="M162.449 128.416c-.616 3.211-1.543 6.52-5.898 5.952-3.984-.538-3.085-3.72-3.066-6.373.04-9.094-3.261-14.439-10.106-16.455-6.767-1.998-12.635 1.125-17.215 9.613-1.688 3.142-3.876 4.728-7.029 3.162-2.949-1.478-2.549-4.239-1.553-7.127 3.271-9.466 11.98-15.712 22.291-15.712 14.12 0 25.212 13.197 22.576 26.94Z"/><path d="M144.296 49.064C143.495 21.879 121.194 0 93.884 0 66.572 0 44.27 21.88 43.47 49.064 18.875 52.92 0 74.3 0 100.017v68.711c0 28.439 23.082 51.58 51.448 51.58h84.871c28.365 0 51.448-23.141 51.448-51.58v-68.711c0-25.716-18.874-47.096-43.471-50.953ZM93.884 19c16.647 0 30.317 13.02 31.421 29.446H62.462c1.103-16.416 14.764-29.446 31.422-29.446Zm74.93 149.737c0 17.964-14.578 32.579-32.495 32.579H51.448c-17.918 0-32.496-14.615-32.496-32.579v-68.721c0-17.963 14.578-32.579 32.496-32.579h84.871c17.917 0 32.495 14.616 32.495 32.579v68.721Z"/></g><defs><clipPath id="a"><path fill="#fff" d="M0 0h635v254H0z"/></clipPath></defs></svg>